<svg xmlns="http://www.w3.org/2000/svg" viewBox="0 0 106.44 108.51"><defs><style>.cls-1{fill:#ff5959;}</style></defs><title>Asset 3</title><g id="Layer_2" data-name="Layer 2"><g id="Layer_1-2" data-name="Layer 1"><g id="man-team-globe"><g id="icon"><path class="cls-1" d="M78.74,36.81c.07.09.15.18.21.27,1.51,2.36,1.49,9.32,1.33,13.33h25.38s.3-7.43-.69-9c-1.11-1.72-4.83-2.8-8.51-4.33A44.45,44.45,0,0,1,91.9,35l0-3.54s1.38-1.05,1.8-4.38c.87.25,1.77-1.29,1.82-2.1s-.12-2.94-1.18-2.73a21.06,21.06,0,0,0,.3-3.87c-.27-2.84-3.07-5.83-7.36-5.83s-7.09,3-7.36,5.83a21.36,21.36,0,0,0,.3,3.87C79.12,22.08,79,24.25,79,25s1,2.35,1.82,2.1c.42,3.32,1.81,4.38,1.81,4.38l0,3.54A38.77,38.77,0,0,1,78.74,36.81Z"/><path class="cls-1" d="M15.69,50.41H26.16c-.16-4-.19-11,1.33-13.33.06-.1.14-.18.21-.27A38.7,38.7,0,0,1,23.83,35l0-3.54s1.38-1.05,1.81-4.38c.86.25,1.77-1.29,1.82-2.1s-.12-2.94-1.17-2.73a22.38,22.38,0,0,0,.29-3.87c-.28-2.84-3.07-5.83-7.36-5.83s-7.09,3-7.36,5.83a21.71,21.71,0,0,0,.29,3.87c-1-.22-1.22,1.95-1.17,2.73s1,2.35,1.82,2.1c.43,3.32,1.8,4.38,1.8,4.38l0,3.54A43.91,43.91,0,0,1,10,37.1c-3.68,1.53-7.4,2.61-8.51,4.33-1,1.55-.69,9-.69,9Z"/><path class="cls-1" d="M37.59,50.41H77.76s.4-9.91-.93-12a4,4,0,0,0-.54-.63c-1.91-1.94-6.36-3.3-10.8-5.14a56.53,56.53,0,0,1-6.07-2.76l0-4.71s1.84-1.41,2.4-5.84c1.15.33,2.36-1.71,2.43-2.8s-.16-3.92-1.56-3.63A29.21,29.21,0,0,0,63,7.77C62.67,4,58.94,0,53.22,0S43.76,4,43.4,7.77a29,29,0,0,0,.39,5.16c-1.4-.29-1.63,2.6-1.56,3.63s1.27,3.13,2.42,2.8c.57,4.43,2.41,5.84,2.41,5.84l0,4.71a58,58,0,0,1-6.07,2.76c-4.44,1.85-8.89,3.2-10.8,5.14a4,4,0,0,0-.54.63c-1.33,2.06-.93,12-.93,12Z"/><path class="cls-1" d="M0,53.71A53.28,53.28,0,0,0,5.18,78.2c8.57,18.52,28.7,31.1,48.94,30.27,20.54,0,40-13.82,47.94-32.46a50.37,50.37,0,0,0,4.36-22.3Zm15.84,35A49.88,49.88,0,0,1,3,56.77l18.92,0,1.75.06a61.07,61.07,0,0,0,4.86,22.73A58.92,58.92,0,0,0,15.85,88.68ZM18.08,91a46.71,46.71,0,0,1,11.64-8.63,65,65,0,0,0,18.93,22.85A49.75,49.75,0,0,1,18.08,91ZM52.26,104A59.24,59.24,0,0,1,32.59,81a48.66,48.66,0,0,1,19.74-4.45Zm.13-30.59a4.78,4.78,0,0,1-.92.12,55.9,55.9,0,0,0-20.2,4.63A61.63,61.63,0,0,1,26.74,58l.06-1.22,20.09,0,5.54,0Zm3.19-16.61,25-.06.7,0a57.67,57.67,0,0,1-5,21.93,55.85,55.85,0,0,0-20.79-5.17ZM55.49,76.6a50.76,50.76,0,0,1,19,4.83l.36.22a60.27,60.27,0,0,1-19.52,22.21ZM59.16,105a65.29,65.29,0,0,0,16-17.55c.9-1.46,1.66-2.84,2.47-4.37a45.56,45.56,0,0,1,10.52,7.81A50.16,50.16,0,0,1,59.16,105ZM90.33,88.6A61,61,0,0,0,79,80.21a62.48,62.48,0,0,0,5.36-23.48l18.27,0c.22.12.51.05.78.08A50.35,50.35,0,0,1,90.33,88.6Z"/></g></g></g></g></svg>