<svg xmlns="http://www.w3.org/2000/svg" viewBox="0 0 144.62 129.23"><defs><style>.cls-1{fill:#ff5959;}.cls-2{fill:#fff;}</style></defs><title>Asset 7</title><g id="Layer_2" data-name="Layer 2"><g id="Layer_1-2" data-name="Layer 1"><polygon class="cls-1" points="75.03 126.37 71 126.37 71 70.39 75.03 70.39 75.03 126.37 75.03 126.37"/><polygon class="cls-1" points="132.21 98.08 88.22 98.08 88.22 55.88 92.25 55.88 92.25 94.05 132.21 94.05 132.21 98.08 132.21 98.08"/><circle class="cls-2" cx="136.84" cy="95.55" r="5.77"/><path class="cls-1" d="M136.84,103.33a7.78,7.78,0,1,1,7.78-7.78,7.79,7.79,0,0,1-7.78,7.78Zm0-11.53a3.75,3.75,0,1,0,3.75,3.75,3.76,3.76,0,0,0-3.75-3.75Z"/><circle class="cls-2" cx="7.78" cy="95.55" r="5.77"/><path class="cls-1" d="M7.78,103.33a7.78,7.78,0,1,1,7.78-7.78,7.79,7.79,0,0,1-7.78,7.78Zm0-11.53a3.75,3.75,0,1,0,3.75,3.75A3.76,3.76,0,0,0,7.78,91.8Z"/><polygon class="cls-1" points="57.54 98.08 13.55 98.08 13.55 94.05 53.51 94.05 53.51 55.88 57.54 55.88 57.54 98.08 57.54 98.08"/><circle class="cls-2" cx="73.01" cy="121.45" r="5.77"/><path class="cls-1" d="M73,129.23a7.78,7.78,0,1,1,7.78-7.78A7.79,7.79,0,0,1,73,129.23Zm0-11.53a3.75,3.75,0,1,0,3.75,3.75A3.76,3.76,0,0,0,73,117.7Z"/><path class="cls-2" d="M122,51.71a22,22,0,0,0,.15-2.42A20.38,20.38,0,0,0,96.22,29.64a30,30,0,0,0-59.66,4.11c0,.06,0,.13,0,.2a18.28,18.28,0,0,0,2.09,36.45h82.26v0c.26,0,.53,0,.79,0A9.34,9.34,0,0,0,122,51.71Z"/><path class="cls-1" d="M121.73,72.41H38.66a20.3,20.3,0,0,1-4.07-40.19,32,32,0,0,1,63.26-5,22.05,22.05,0,0,1,3.9-.35,22.46,22.46,0,0,1,22.44,22.44c0,.22,0,.43,0,.66a11.36,11.36,0,0,1-1.77,22.44h-.67Zm0-4A7.33,7.33,0,0,0,122,53.72l-2.18-.06.24-2.17a19.66,19.66,0,0,0,.14-2.2A18.37,18.37,0,0,0,96.77,31.58l-2.22.62-.31-2.29a28,28,0,0,0-55.65,3.83v1.8l-1.78.41a16.27,16.27,0,0,0,1.86,32.43h83.07Z"/><path class="cls-1" d="M124,51.19a22.49,22.49,0,0,0,.15-2.48A20.89,20.89,0,0,0,97.53,28.57a30.72,30.72,0,0,0-61.14,4.21c0,.07,0,.14,0,.21a18.74,18.74,0,0,0,2.14,37.36h84.32v0c.27,0,.54,0,.81,0a9.58,9.58,0,0,0,.3-19.15Z"/><path class="cls-1" d="M123.67,72.41H38.53a20.8,20.8,0,0,1-4.17-41.19,32.78,32.78,0,0,1,64.83-5.14,22.6,22.6,0,0,1,4-.36,23,23,0,0,1,23,23c0,.22,0,.45,0,.68a11.64,11.64,0,0,1-1.81,23h-.69Zm0-4.13a7.51,7.51,0,0,0,.24-15l-2.24-.07.25-2.22a20.15,20.15,0,0,0,.14-2.25,18.82,18.82,0,0,0-24-18.15l-2.28.64-.32-2.34a28.65,28.65,0,0,0-57,3.93v1.84L36.62,35a16.68,16.68,0,0,0,1.91,33.24h85.14Z"/></g></g></svg>