<svg xmlns="http://www.w3.org/2000/svg" viewBox="0 0 141.73 113.21"><defs><style>.cls-1,.cls-2,.cls-3{fill:none;stroke-width:3px;}.cls-1,.cls-2,.cls-3,.cls-4,.cls-5{stroke:#ff5959;}.cls-1,.cls-2,.cls-3,.cls-4{stroke-linecap:round;stroke-linejoin:round;}.cls-2{stroke-dasharray:6.2 6.2;}.cls-3{stroke-dasharray:6.12 6.12;}.cls-4,.cls-6{fill:#fff;}.cls-4{stroke-width:4px;}.cls-5{fill:#ff5959;stroke-miterlimit:10;stroke-width:7px;}</style></defs><title>Asset 1</title><g id="Layer_2" data-name="Layer 2"><g id="Layer_1-2" data-name="Layer 1"><polyline class="cls-1" points="125.33 108.71 125.33 111.71 122.33 111.71"/><line class="cls-2" x1="116.13" y1="111.71" x2="7.6" y2="111.71"/><polyline class="cls-1" points="4.5 111.71 1.5 111.71 1.5 108.71"/><line class="cls-3" x1="1.5" y1="102.59" x2="1.5" y2="19.97"/><polyline class="cls-1" points="1.5 16.91 1.5 13.91 4.5 13.91"/><line class="cls-2" x1="10.7" y1="13.91" x2="119.23" y2="13.91"/><polyline class="cls-1" points="122.33 13.91 125.33 13.91 125.33 16.91"/><line class="cls-3" x1="125.33" y1="23.03" x2="125.33" y2="105.65"/><rect class="cls-4" x="15.9" y="2" width="123.83" height="97.8"/><rect class="cls-5" x="28.13" y="14.22" width="99.38" height="73.35"/><path class="cls-6" d="M79,87.58c-12.72,0-14.1-35.27-25.45-35.27S40.85,87.58,28.13,87.58Z"/><path class="cls-6" d="M127.91,87.58C110,87.58,108,37.81,92,37.81,80.74,37.81,76.43,62.39,68.64,77l1.55,10.58Z"/><circle class="cls-6" cx="63.41" cy="32.06" r="6.78"/></g></g></svg>