<svg xmlns="http://www.w3.org/2000/svg" viewBox="0 0 149.92 88.2"><defs><style>.cls-1{fill:none;stroke:#ff5959;stroke-miterlimit:10;stroke-width:3px;}.cls-1,.cls-2{fill-rule:evenodd;}.cls-2{fill:#ff5959;}.cls-3{fill:#fff;}</style></defs><title>Asset 2</title><g id="Layer_2" data-name="Layer 2"><g id="Layer_1-2" data-name="Layer 1"><path class="cls-1" d="M76.49,80.58H16.8v-75A4.08,4.08,0,0,1,20.89,1.5H129a4.08,4.08,0,0,1,4.08,4.08v75Z"/><path class="cls-1" d="M148.42,80.58a6.06,6.06,0,0,1-6,6.12H7.51a6.06,6.06,0,0,1-6-6.12Z"/><path class="cls-2" d="M21.12,75.69V6.39H128.81v69.3Z"/><path class="cls-3" d="M60.85,50.18v.3l-4,4L45.07,42.82v-.77L56.82,30.42l4,4v.31l-8.07,7.76Z"/><path class="cls-3" d="M86.78,19.39,69.73,62.68H63.24l17-43.29Z"/><path class="cls-3" d="M97.14,42.47l-8.07-7.76V34.4l4-4,11.74,11.64v.77L93.11,54.47l-4-4v-.3Z"/></g></g></svg>