<svg xmlns="http://www.w3.org/2000/svg" viewBox="0 0 89.67 89.67"><defs><style>.cls-1{fill:#ff5959;}.cls-2{font-size:10.28px;font-family:Helvetica-Bold, Helvetica;font-weight:700;}.cls-2,.cls-6{fill:#fff;}.cls-3{fill:#bfbfbf;}.cls-4{fill:#f6f6f6;}.cls-5{fill:#dadada;}.cls-7{fill:#ededed;}</style></defs><title>HTML 5 Icon</title><g id="Layer_2" data-name="Layer 2"><g id="Layer_1-2" data-name="Layer 1"><rect class="cls-1" width="89.67" height="89.67" rx="13.38" ry="13.38"/><text class="cls-2" transform="translate(26.28 77.35)">HTML 5</text><polygon class="cls-3" points="63.77 18.57 44.61 18.57 44.61 18.57 25.45 18.57 29.04 57.52 44.61 61.93 44.61 61.93 44.61 61.93 44.61 61.93 44.61 61.93 60.17 57.52 63.77 18.57"/><path class="cls-4" d="M33.67,10.41H31.46V8H29v7.27h2.45V12.86h2.21v2.41h2.44V8H33.67ZM50.74,8h-.22L49,10.49,47.49,8H45v7.27h2.37V11.64L49,14.26h0l1.73-2.69v3.7H53.1V8H50.74ZM37.18,10.45h2.13v4.82h2.45V10.45h2.13V8h-6.7Zm19.61,2.38V8H54.35v7.27H60.2V12.82Z"/><polygon class="cls-5" points="44.61 21.74 44.61 58.63 44.61 58.63 57.22 55.06 60.28 21.74 44.61 21.74"/><polygon class="cls-6" points="56.66 26.52 32.55 26.52 33.9 41.1 33.93 41.01 50.4 41.01 49.86 47.18 44.61 48.7 39.28 47.16 38.96 43.43 34.11 43.43 34.81 50.89 44.61 53.67 54.41 50.89 55.76 36.25 38.29 36.25 37.84 31.36 56.22 31.36 56.66 26.52"/><path class="cls-7" d="M44.61,26.52H32.55L33.9,41.11l0-.09H44.61V36.25H38.29l-.45-4.88h6.77ZM39,43.43H34.11l.69,7.46,9.8,2.78v-5l-5.33-1.54Z"/></g></g></svg>