<svg xmlns="http://www.w3.org/2000/svg" viewBox="0 0 89.67 89.67"><defs><style>.cls-1{fill:#ff5959;}.cls-2{font-size:10.28px;font-family:Helvetica-Bold, Helvetica;font-weight:700;}.cls-2,.cls-6{fill:#fff;}.cls-3{letter-spacing:-0.01em;}.cls-4{letter-spacing:-0.02em;}.cls-5{letter-spacing:0em;}.cls-7{fill:#cecece;}</style></defs><title>Java Script Icon</title><g id="Layer_2" data-name="Layer 2"><g id="Layer_1-2" data-name="Layer 1"><rect class="cls-1" width="89.67" height="89.67" rx="13.38" ry="13.38"/><text class="cls-2" transform="translate(19.02 77.35)">J<tspan class="cls-3" x="5.71" y="0">a</tspan><tspan class="cls-4" x="11.28" y="0">v</tspan><tspan class="cls-5" x="16.79" y="0">aScript</tspan></text><path class="cls-6" d="M21,57.77V10H68.77V57.77ZM49.37,49.4l.09.18a8,8,0,0,0,4.63,3.87,10.82,10.82,0,0,0,5.86.27A6.73,6.73,0,0,0,63.25,52a5.46,5.46,0,0,0,1.66-3.44,7.11,7.11,0,0,0-.39-3.44A6.23,6.23,0,0,0,62,42.28a24,24,0,0,0-4-2,8.87,8.87,0,0,1-2.17-1.16A2,2,0,0,1,55.2,37a1.72,1.72,0,0,1,1.38-1.36,2.79,2.79,0,0,1,3,.93c.23.27.42.57.64.88l3.47-2.23c-.1-.17-.19-.33-.29-.48a6.25,6.25,0,0,0-3-2.58,8.55,8.55,0,0,0-5.13-.28,5.69,5.69,0,0,0-4.5,5.54A6.13,6.13,0,0,0,52,41.59a7.21,7.21,0,0,0,2.45,2c1.11.56,2.27,1,3.39,1.57a12.78,12.78,0,0,1,1.8,1,2,2,0,0,1,.73,2.36,2.19,2.19,0,0,1-1.58,1.35,4.68,4.68,0,0,1-5.08-1.57c-.24-.3-.46-.62-.7-.94Zm-15.83.47a.91.91,0,0,0,0,.12,6.71,6.71,0,0,0,3.91,3.55,8.69,8.69,0,0,0,5.07.16,5.36,5.36,0,0,0,3.88-3.4,9,9,0,0,0,.51-3.3q0-7.41,0-14.82v-.24H42.46v.35q0,7.29,0,14.57a8.93,8.93,0,0,1-.08,1.29,1.82,1.82,0,0,1-1.17,1.64A2.69,2.69,0,0,1,38,48.91c-.29-.39-.53-.8-.81-1.22Z"/><path class="cls-7" d="M49.37,49.4,53,47.3c.24.33.46.64.7.94a4.68,4.68,0,0,0,5.08,1.57,2.19,2.19,0,0,0,1.58-1.35,2,2,0,0,0-.73-2.36,12.78,12.78,0,0,0-1.8-1c-1.12-.54-2.28-1-3.39-1.57a7.21,7.21,0,0,1-2.45-2,6.13,6.13,0,0,1-1.27-4.12,5.69,5.69,0,0,1,4.5-5.54,8.55,8.55,0,0,1,5.13.28,6.25,6.25,0,0,1,3,2.58c.1.15.19.31.29.48l-3.47,2.23c-.22-.31-.41-.61-.64-.88a2.79,2.79,0,0,0-3-.93A1.72,1.72,0,0,0,55.2,37a2,2,0,0,0,.68,2.08,8.87,8.87,0,0,0,2.17,1.16,24,24,0,0,1,4,2,6.23,6.23,0,0,1,2.47,2.88,7.11,7.11,0,0,1,.39,3.44A5.46,5.46,0,0,1,63.25,52,6.73,6.73,0,0,1,60,53.72a10.82,10.82,0,0,1-5.86-.27,8,8,0,0,1-4.63-3.87Z"/><path class="cls-7" d="M33.54,49.87l3.62-2.19c.28.42.53.83.81,1.22a2.69,2.69,0,0,0,3.23.89,1.82,1.82,0,0,0,1.17-1.64,8.93,8.93,0,0,0,.08-1.29q0-7.29,0-14.57v-.35h4.48v.24q0,7.41,0,14.82a9,9,0,0,1-.51,3.3,5.36,5.36,0,0,1-3.88,3.4,8.69,8.69,0,0,1-5.07-.16A6.71,6.71,0,0,1,33.58,50,.91.91,0,0,1,33.54,49.87Z"/></g></g></svg>