<svg xmlns="http://www.w3.org/2000/svg" viewBox="0 0 89.67 89.67"><defs><style>.cls-1{fill:#ff5959;}.cls-2{font-size:10.28px;font-family:Helvetica-Bold, Helvetica;font-weight:700;}.cls-2,.cls-4{fill:#fff;}.cls-3{letter-spacing:-0.02em;}</style></defs><title>Laravel Icon</title><g id="Layer_2" data-name="Layer 2"><g id="Layer_1-2" data-name="Layer 1"><rect class="cls-1" width="89.67" height="89.67" rx="13.38" ry="13.38"/><text class="cls-2" transform="translate(26.92 77.35)">Lar<tspan class="cls-3" x="15.99" y="0">a</tspan><tspan x="21.55" y="0">vel</tspan></text><path class="cls-4" d="M79,34c-.45-.51-6.74-8.38-7.85-9.71s-1.65-1.09-2.33-1-8.63,1.43-9.56,1.59-1.51.53-.94,1.32l6.88,9.75-20.78,5L27.88,13.26c-.66-1-.79-1.32-2.29-1.25s-13,1-13.78,1.09-1.71.43-.9,2.36,13.84,30,14.2,30.81a2.79,2.79,0,0,0,3.52,1.61c2.26-.54,10.12-2.59,14.41-3.72,2.27,4.11,6.89,12.43,7.75,13.63,1.14,1.59,1.93,1.33,3.68.8,1.37-.41,21.41-7.62,22.31-8s1.46-.64.85-1.54c-.45-.66-5.74-7.75-8.51-11.45l9.36-2.5C79.31,34.88,79.43,34.47,79,34ZM41.19,41.68l-12.51,3c-.62.14-.62.07-.69-.14s-13.84-28.61-14-29-.18-.64,0-.64,11-1,11.38-1,.34.06.48.3L41.33,41C41.6,41.49,41.44,41.63,41.19,41.68ZM74,47.83c.19.29.37.48-.21.69s-19.7,6.66-20.07,6.82-.66.21-1.14-.48-6.7-11.45-6.7-11.45l20.27-5.27c.5-.16.66-.27,1,.24S73.82,47.54,74,47.83Zm1.3-14.39c-.45.1-7.9,1.95-7.9,1.95L61.33,27c-.17-.24-.31-.48.11-.54s7.34-1.31,7.65-1.38.58-.16,1,.37,5.65,7.19,5.84,7.44S75.76,33.35,75.31,33.45Z"/></g></g></svg>