<svg xmlns="http://www.w3.org/2000/svg" viewBox="0 0 80.28 142.05"><defs><style>.cls-1{fill:none;}.cls-1,.cls-2{stroke:#ff5959;stroke-miterlimit:10;stroke-width:5px;}.cls-2{fill:#fff;}</style></defs><title>Asset 8</title><g id="Layer_2" data-name="Layer 2"><g id="Layer_1-2" data-name="Layer 1"><path class="cls-1" d="M77.78,40.14A37.64,37.64,0,1,0,9.84,62.47a64.32,64.32,0,0,1,12.69,38.19v.6H57.75v-.6a65.06,65.06,0,0,1,12.8-38.34,37.47,37.47,0,0,0,7.23-22.18"/><circle class="cls-1" cx="29.2" cy="50.21" r="4.82"/><line class="cls-1" x1="34.01" y1="50.21" x2="34.01" y2="101.25"/><circle class="cls-1" cx="50.35" cy="50.21" r="4.82"/><line class="cls-1" x1="45.53" y1="50.21" x2="45.53" y2="101.25"/><path class="cls-2" d="M47.5,91.89a7.36,7.36,0,0,0-7.36-7.36h0a7.36,7.36,0,0,0-7.36,7.36v18.73A7.36,7.36,0,0,0,40.14,118h0a7.36,7.36,0,0,0,7.36-7.36Z"/><path class="cls-2" d="M46,134a5.53,5.53,0,0,1-5.53,5.53h-.61A5.53,5.53,0,0,1,34.3,134h0a5.53,5.53,0,0,1,5.53-5.53h.61A5.53,5.53,0,0,1,46,134Z"/><path class="cls-2" d="M57.95,121.67A13.36,13.36,0,0,1,44.59,135H35.69a13.36,13.36,0,0,1-13.36-13.36h0a13.36,13.36,0,0,1,13.36-13.36h8.91a13.36,13.36,0,0,1,13.36,13.36Z"/><rect class="cls-2" x="22.33" y="101.25" width="35.62" height="14.12"/><path class="cls-2" d="M59.1,114.15a3.55,3.55,0,0,1-4,3.6l-30-2.71a4.42,4.42,0,0,1-4-4.31h0a3.56,3.56,0,0,1,4-3.6l30,2.7a4.42,4.42,0,0,1,4,4.31Z"/><path class="cls-2" d="M59.1,122.13a3.56,3.56,0,0,1-4,3.6l-30-2.71a4.42,4.42,0,0,1-4-4.31h0a3.55,3.55,0,0,1,4-3.6l30,2.71a4.42,4.42,0,0,1,4,4.31Z"/></g></g></svg>