<svg xmlns="http://www.w3.org/2000/svg" viewBox="0 0 74.2 143"><defs><style>.cls-1{fill:#ff5959;}.cls-2{fill:#fff;}</style></defs><title>Asset 5</title><g id="Layer_2" data-name="Layer 2"><g id="Layer_1-2" data-name="Layer 1"><rect class="cls-1" width="74.2" height="143" rx="10.82" ry="10.82"/><rect class="cls-2" x="4.59" y="20.45" width="65.03" height="102.1" rx="0.25" ry="0.25"/><rect class="cls-2" x="26.62" y="8.65" width="20.96" height="3.63" rx="1.82" ry="1.82"/><circle class="cls-2" cx="37.1" cy="132.52" r="6.35"/><rect class="cls-1" x="33.8" y="129.23" width="6.59" height="6.59" rx="1.38" ry="1.38"/><rect class="cls-2" x="34.66" y="130.08" width="4.88" height="4.88" rx="0.84" ry="0.84"/><path class="cls-1" d="M26.69,79v.22l-3,2.94L15,73.53V73l8.67-8.59,3,2.94v.23l-6,5.73Z"/><path class="cls-1" d="M45.82,56.24,33.24,88.18H28.45L41,56.24Z"/><path class="cls-1" d="M53.46,73.27l-6-5.73v-.23l3-2.94L59.15,73v.57l-8.67,8.59-3-2.94V79Z"/></g></g></svg>