<svg xmlns="http://www.w3.org/2000/svg" viewBox="0 0 89.67 89.67"><defs><style>.cls-1{fill:#ff5959;}.cls-2{font-size:10.28px;font-family:Helvetica-Bold, Helvetica;font-weight:700;}.cls-2,.cls-3{fill:#fff;}</style></defs><title>Python Icon</title><g id="Layer_2" data-name="Layer 2"><g id="Layer_1-2" data-name="Layer 1"><rect class="cls-1" width="89.67" height="89.67" rx="13.38" ry="13.38"/><text class="cls-2" transform="translate(27.42 77.35)">Python</text><path class="cls-3" d="M44.56,7c-13.78,0-12.92,6-12.92,6l0,6.19H44.8V21H26.43s-8.82-1-8.82,12.9,7.7,13.41,7.7,13.41H29.9V40.89s-.25-7.7,7.57-7.7h13s7.33.12,7.33-7.08V14.2S59,7,44.56,7Zm-7.25,4.16a2.37,2.37,0,1,1-2.37,2.37,2.36,2.36,0,0,1,2.37-2.37Z"/><path class="cls-3" d="M44.95,61c13.78,0,12.92-6,12.92-6l0-6.19H44.7V47H63.08s8.82,1,8.82-12.9-7.7-13.41-7.7-13.41H59.6v6.45s.25,7.7-7.57,7.7H39s-7.33-.12-7.33,7.08V53.8S30.55,61,44.95,61Zm7.25-4.16a2.37,2.37,0,1,1,2.37-2.37,2.36,2.36,0,0,1-2.37,2.37Z"/></g></g></svg>