<svg xmlns="http://www.w3.org/2000/svg" viewBox="0 0 89.67 89.67"><defs><style>.cls-1{fill:#ff5959;}.cls-2{font-size:10.28px;font-family:Helvetica-Bold, Helvetica;font-weight:700;}.cls-2,.cls-3{fill:#fff;}</style></defs><title>Redux Icon</title><g id="Layer_2" data-name="Layer 2"><g id="Layer_1-2" data-name="Layer 1"><rect class="cls-1" width="89.67" height="89.67" rx="13.38" ry="13.38"/><text class="cls-2" transform="translate(29.13 77.35)">Redux</text><path class="cls-3" d="M55.6,44.94a4.14,4.14,0,0,0-.44-8.26H55A4.13,4.13,0,0,0,51,41a4.24,4.24,0,0,0,1.18,2.73c-2.51,4.94-6.34,8.56-12.1,11.58a20,20,0,0,1-12,2.29,10.25,10.25,0,0,1-7.52-4.35A10.84,10.84,0,0,1,20,41.76a17.37,17.37,0,0,1,5-5.9c-.3-1-.74-2.58-1-3.76-10.7,7.75-9.59,18.22-6.34,23.16,2.43,3.69,7.38,6,12.84,6a18.13,18.13,0,0,0,4.43-.52A28.31,28.31,0,0,0,55.6,44.94Zm13-9.15C63,29.22,54.71,25.61,45.27,25.61H44.09a4.05,4.05,0,0,0-3.61-2.21h-.15a4.13,4.13,0,0,0,.15,8.26h.15a4.16,4.16,0,0,0,3.61-2.51h1.33a28.12,28.12,0,0,1,15.71,4.8,19.76,19.76,0,0,1,7.82,9.44A10.23,10.23,0,0,1,69,52.09a10.83,10.83,0,0,1-10.11,6,18.87,18.87,0,0,1-7.23-1.55c-.81.74-2.29,1.92-3.32,2.66a22.77,22.77,0,0,0,9.52,2.29c7.08,0,12.32-3.91,14.31-7.82C74.26,49.44,74.11,42.06,68.58,35.79ZM31.11,46.19a4.14,4.14,0,0,0,4.13,4h.15a4.13,4.13,0,0,0-.15-8.26h-.15a1.26,1.26,0,0,0-.52.07,27,27,0,0,1-3.84-16.38,19.79,19.79,0,0,1,4.35-11.43c2.14-2.73,6.27-4.06,9.07-4.13C52,9.89,55.3,19.63,55.52,23.54c1,.22,2.58.74,3.69,1.11C58.33,12.7,51,6.5,43.87,6.5c-6.64,0-12.76,4.8-15.2,11.88-3.39,9.44-1.18,18.52,3,25.67A3.31,3.31,0,0,0,31.11,46.19Z"/></g></g></svg>