<svg xmlns="http://www.w3.org/2000/svg" viewBox="0 0 89.67 89.67"><defs><style>.cls-1{fill:#ff5959;}.cls-2{font-size:10.28px;font-family:Helvetica-Bold, Helvetica;font-weight:700;}.cls-2,.cls-3{fill:#fff;}</style></defs><title>Sass Icon</title><g id="Layer_2" data-name="Layer 2"><g id="Layer_1-2" data-name="Layer 1"><rect class="cls-1" width="89.67" height="89.67" rx="13.38" ry="13.38"/><text class="cls-2" transform="translate(32.84 77.35)">Sass</text><path class="cls-3" d="M68.41,39.5a13.44,13.44,0,0,0-5.92,1.38,12.4,12.4,0,0,1-1.32-3.07A8.15,8.15,0,0,1,61,35.24a22.54,22.54,0,0,1,.77-2.78c0-.12-.14-.68-1.46-.69s-2.45.25-2.58.6a13,13,0,0,0-.54,1.95c-.23,1.19-2.63,5.46-4,7.69a8,8,0,0,1-.9-2.24,8.15,8.15,0,0,1-.11-2.58A22.54,22.54,0,0,1,53,34.41c0-.12-.14-.68-1.46-.69s-2.45.25-2.58.6-.27,1.16-.54,1.95S45,44.16,44.12,46c-.43.94-.8,1.69-1.06,2.21h0l0,.09c-.22.44-.36.68-.36.68h0c-.18.32-.37.62-.46.62a4.13,4.13,0,0,1,0-2c.47-2.47,1.62-6.31,1.6-6.44S44,40.4,43.09,40a1.19,1.19,0,0,0-1.35.23c-.08,0-.14.2-.14.2s1-4.32-2-4.32c-1.88,0-4.49,2.06-5.78,3.93l-4.39,2.4-2.11,1.16-.14-.15c-3.65-3.9-10.41-6.65-10.12-11.89.1-1.9.77-6.92,13-13,10-5,18-3.61,19.39-.57,2,4.34-4.28,12.41-14.66,13.58-4,.44-6-1.09-6.56-1.66s-.63-.63-.83-.52-.12.71,0,1a6.15,6.15,0,0,0,3.75,3c1.91.63,6.55,1,12.17-1.2,6.29-2.43,11.21-9.21,9.76-14.86s-11-7.65-20-4.44c-5.38,1.91-11.2,4.91-15.38,8.82-5,4.65-5.77,8.7-5.44,10.4,1.16,6,9.45,9.93,12.77,12.83l-.46.25c-1.66.82-8,4.13-9.56,7.62-1.79,4,.29,6.81,1.66,7.19a10.2,10.2,0,0,0,11-4.45,11,11,0,0,0,1-10.15l0-.08,1.3-.77c.85-.5,1.68-1,2.4-1.35a16.14,16.14,0,0,0-.85,4.35c-.18,2.25.74,5.16,1.95,6.3a2.14,2.14,0,0,0,1.58.52c1.4,0,2-1.17,2.75-2.55.87-1.69,1.63-3.67,1.63-3.67s-1,5.33,1.66,5.33c1,0,1.92-1.24,2.35-1.87h0l.07-.12.16-.25v0c.38-.67,1.24-2.19,2.52-4.7,1.65-3.24,3.24-7.3,3.24-7.3a21.71,21.71,0,0,0,.63,2.64,24.63,24.63,0,0,0,1.36,3.06c-.38.53-.62.84-.62.84v0c-.31.41-.65.85-1,1.27a36.92,36.92,0,0,0-3.06,3.84,1,1,0,0,0,.29,1.4,2.57,2.57,0,0,0,1.6.26,7.31,7.31,0,0,0,2.4-.55A8.08,8.08,0,0,0,53,50.9a4.59,4.59,0,0,0,2-4.07A8.25,8.25,0,0,0,54.2,44l.35-.51a54.59,54.59,0,0,0,3.58-6.19,21.7,21.7,0,0,0,.63,2.64,18.38,18.38,0,0,0,1.16,2.63A11.23,11.23,0,0,0,56.44,47c-.75,2.17-.16,3.16.95,3.38a3.41,3.41,0,0,0,1.75-.35,8.09,8.09,0,0,0,2.21-1.13c1.28-.94,2.51-2.26,2.43-4a7.58,7.58,0,0,0-.55-2.39,12.49,12.49,0,0,1,6.34-.73c5.69.66,6.8,4.21,6.59,5.7A3.75,3.75,0,0,1,74.34,50c-.4.25-.52.33-.49.52s.23.26.57.2a4.43,4.43,0,0,0,3.09-4C77.66,43.3,74.32,39.47,68.41,39.5ZM24.59,54.28c-1.88,2.05-4.51,2.83-5.64,2.18s-.74-3.73,1.58-5.91A29.91,29.91,0,0,1,25,47.24l1.17-.7.13-.07h0l.29-.17A8.17,8.17,0,0,1,24.59,54.28ZM38.31,45c-.66,1.6-2,5.69-2.86,5.47s-1.15-3.3-.14-6.36A14.18,14.18,0,0,1,37.53,40c1-1.15,2.16-1.53,2.43-1.06S38.72,43.95,38.31,45Zm11.33,5.41c-.28.15-.53.24-.65.17s.11-.24.11-.24,1.42-1.53,2-2.22c.32-.4.7-.88,1.11-1.42,0,.05,0,.11,0,.16C52.19,48.63,50.43,49.86,49.64,50.36Zm8.73-2c-.21-.15-.17-.62.51-2.11a8,8,0,0,1,1.94-2.5,3.57,3.57,0,0,1-2.45,4.62Z"/></g></g></svg>