<svg xmlns="http://www.w3.org/2000/svg" viewBox="0 0 89.67 89.67"><defs><style>.cls-1{fill:#ff5959;}.cls-2{font-size:10.28px;font-family:Helvetica-Bold, Helvetica;font-weight:700;}.cls-2,.cls-5{fill:#fff;}.cls-3{letter-spacing:-0.02em;}.cls-4{letter-spacing:0em;}</style></defs><title>Socket.io Icon</title><g id="Layer_2" data-name="Layer 2"><g id="Layer_1-2" data-name="Layer 1"><rect class="cls-1" width="89.67" height="89.67" rx="13.38" ry="13.38"/><text class="cls-2" transform="translate(22.09 77.35)">So<tspan class="cls-3" x="13.14" y="0">c</tspan><tspan class="cls-4" x="18.65" y="0">ket.io</tspan></text><path class="cls-5" d="M69.78,33.2A24.78,24.78,0,0,0,38.73,9.78h0A24.78,24.78,0,1,0,69.78,33.2ZM46.38,54.86C35.12,56,24.23,46.43,23.91,35.12A21.14,21.14,0,0,1,37.74,13.84C49.86,9,64.73,17.95,66,30.94,67.93,42.63,58.23,54.51,46.38,54.86Z"/><path class="cls-5" d="M38.6,30.93c5.76-4.71,11.4-9.58,17.28-14.14-3.09,4.74-6.26,9.43-9.35,14.17-2.65,0-5.3,0-7.93,0Zm4.87,2.62c2.66,0,5.31,0,8,0C45.63,38.27,40,43.18,34.12,47.73c3.09-4.74,6.26-9.44,9.35-14.18Z"/></g></g></svg>