<svg xmlns="http://www.w3.org/2000/svg" viewBox="0 0 124 124"><defs><style>.cls-1{fill:#ff5959;}</style></defs><title>Asset 6</title><g id="Layer_2" data-name="Layer 2"><g id="Layer_1-2" data-name="Layer 1"><path class="cls-1" d="M123.76,31.31a5.68,5.68,0,0,0-9.65-3.36l-15.4,15.4-15.6-2.46-2.46-15.6,15.4-15.4A5.68,5.68,0,0,0,92.69.24,34.89,34.89,0,0,0,55,44.38L5.09,94.3a17.4,17.4,0,1,0,24.61,24.61L79.62,69a34.89,34.89,0,0,0,44.14-37.68ZM21.52,110.73a5.83,5.83,0,1,1-8.25-8.25l47-47a35.54,35.54,0,0,0,8.25,8.25Zm0,0"/></g></g></svg>